<?xml version="1.0"?><svg xmlns="http://www.w3.org/2000/svg"  viewBox="0 0 30 30" width="30px" height="30px">    <path d="M 17.662109 -0.015625 C 19.190109 3.063375 12.191016 4.9633437 11.541016 7.5273438 C 10.946016 9.8833438 15.696172 12.621094 15.701172 12.621094 C 14.979172 11.647094 14.457422 10.842219 13.732422 9.3242188 C 12.506422 6.7572187 20.966109 4.108375 17.662109 -0.015625 z M 22.722656 4.1972656 C 22.722656 4.1972656 17.386281 4.5194844 17.113281 7.7714844 C 16.992281 9.2194844 18.515594 9.992875 18.558594 11.046875 C 18.595594 11.907875 17.648438 12.623047 17.648438 12.623047 C 17.648438 12.623047 19.211047 12.383312 19.748047 11.070312 C 20.342047 9.6143125 18.747781 8.5517656 18.925781 7.3847656 C 19.095781 6.2687656 22.722656 4.1972656 22.722656 4.1972656 z M 12.761719 12.623047 C 12.761719 12.623047 7.2773438 12.550172 7.2773438 14.076172 C 7.2763438 15.671172 14.457938 15.782734 19.585938 14.802734 C 19.585938 14.802734 20.749281 14.165266 21.113281 13.822266 C 17.753281 14.495266 10.287109 14.300797 10.287109 13.716797 C 10.287109 13.178797 12.761719 12.623047 12.761719 12.623047 z M 23.681641 12.664062 C 23.07915 12.638797 22.419687 12.830578 21.851562 13.236328 C 23.038563 12.979328 24.039063 13.709734 24.039062 14.552734 C 24.039062 16.446734 21.318359 18.240234 21.318359 18.240234 C 21.318359 18.240234 25.53125 17.755625 25.53125 14.640625 C 25.53125 13.354375 24.685791 12.706172 23.681641 12.664062 z M 10.816406 15.431641 C 9.9584062 15.430641 8.6816406 16.111625 8.6816406 16.765625 C 8.6816406 18.081625 15.136062 19.095828 19.914062 17.173828 L 18.259766 16.132812 C 15.020766 17.195812 9.0484062 16.854641 10.816406 15.431641 z M 12.029297 18.238281 C 10.850297 18.238281 10.085938 19.031328 10.085938 19.611328 C 10.085938 21.407328 17.124062 21.468578 19.914062 19.642578 L 18.140625 18.537109 C 16.058625 19.492109 10.824297 19.622281 12.029297 18.238281 z M 6.9199219 20.990234 C 5.2392793 20.937557 4.46875 21.796297 4.46875 22.498047 C 4.46875 26.228047 22.722656 26.049328 22.722656 22.236328 C 22.722656 21.603328 22.017719 21.302203 21.761719 21.158203 C 23.251719 24.803203 6.6503906 24.553344 6.6503906 22.402344 C 6.6503906 21.912344 7.5294375 21.412625 8.6484375 21.640625 C 8.6484375 21.640625 8.2382656 21.164312 7.6972656 21.070312 C 7.4196406 21.022437 7.1600137 20.99776 6.9199219 20.990234 z M 25.53125 23.794922 C 22.63425 26.630922 14.659344 28.352563 7.2773438 26.601562 C 14.694344 29.607563 25.49625 27.275922 25.53125 23.794922 z"/></svg>