<?xml version="1.0" encoding="iso-8859-1"?>
<!-- Generator: Adobe Illustrator 19.0.0, SVG Export Plug-In . SVG Version: 6.00 Build 0)  -->
<svg xmlns="http://www.w3.org/2000/svg" xmlns:xlink="http://www.w3.org/1999/xlink" version="1.1" id="Layer_1" x="0px" y="0px" viewBox="0 0 512 512" style="enable-background:new 0 0 512 512;" xml:space="preserve">
<path style="fill:#FFDC64;" d="M257.888,503.392c55.49-1.015,98.909-48.623,98.909-104.122v-42.474h45.817  c56.296,0,101.812-46.152,100.779-102.684c-1.015-55.49-48.623-98.909-104.122-98.909h-42.474v27.49  c0,40.486-32.821,73.306-73.306,73.306h-54.98c-40.486,0-73.306,32.821-73.306,73.306v27.49v45.817  C155.204,458.909,201.356,504.427,257.888,503.392z"/>
<path style="fill:#FFF082;" d="M356.797,356.797h-82.47c-10.122,0-18.327,8.205-18.327,18.327v32.072  c0,27.835,22.564,50.398,50.398,50.398l0,0c27.835,0,50.398-22.564,50.398-50.398V356.797z"/>
<circle style="fill:#FFFFFF;" cx="301.817" cy="411.777" r="18.327"/>
<path style="fill:#00AAF0;" d="M254.113,8.608c-55.49,1.015-98.909,48.623-98.909,104.123v42.473h-45.817  c-56.296,0-101.812,46.152-100.779,102.684c1.015,55.49,48.623,98.909,104.122,98.909h42.474v-27.49  c0-40.486,32.821-73.306,73.306-73.306h54.98c40.486,0,73.306-32.821,73.306-73.306v-27.49v-45.817  C356.797,53.091,310.646,7.575,254.113,8.608z"/>
<path style="fill:#0096DC;" d="M155.204,155.204h82.47c10.122,0,18.327-8.205,18.327-18.327v-32.072  c0-27.834-22.564-50.398-50.398-50.398l0,0c-27.835,0-50.398,22.564-50.398,50.398V155.204z"/>
<circle style="fill:#FFFFFF;" cx="210.184" cy="100.224" r="18.327"/>
<g>
	<path style="fill:#FFF082;" d="M430.131,207.213c-1.315,0-2.657-0.286-3.929-0.895c-4.976-2.363-10.264-3.964-15.705-4.734   c-5.011-0.716-8.492-5.351-7.785-10.363c0.716-5.011,5.361-8.474,10.363-7.785c7.284,1.038,14.353,3.168,21.002,6.344   c4.572,2.174,6.515,7.642,4.331,12.206C436.842,205.289,433.558,207.213,430.131,207.213z"/>
	<path style="fill:#FFF082;" d="M448.43,310.05c-2.317,0-4.626-0.868-6.417-2.622c-3.615-3.535-3.669-9.342-0.125-12.958   c10.13-10.335,15.705-24,15.705-38.47c0-11.311-3.41-22.183-9.861-31.428c-2.89-4.152-1.88-9.861,2.273-12.761   c4.17-2.882,9.87-1.861,12.761,2.272c8.609,12.34,13.154,26.828,13.154,41.915c0,19.293-7.436,37.512-20.948,51.302   C453.183,309.128,450.802,310.05,448.43,310.05z"/>
</g>
<g>
	<path style="fill:#0096DC;" d="M81.871,304.788c1.315,0,2.657,0.286,3.929,0.895c4.976,2.363,10.264,3.964,15.705,4.734   c5.011,0.716,8.492,5.351,7.785,10.363c-0.716,5.011-5.361,8.474-10.363,7.785c-7.284-1.038-14.353-3.168-21.002-6.344   c-4.572-2.174-6.515-7.642-4.331-12.206C75.16,306.712,78.444,304.788,81.871,304.788z"/>
	<path style="fill:#0096DC;" d="M63.571,201.952c2.317,0,4.626,0.868,6.417,2.622c3.615,3.535,3.669,9.342,0.125,12.958   C59.984,227.867,54.408,241.53,54.408,256c0,11.311,3.41,22.183,9.861,31.428c2.89,4.152,1.88,9.861-2.273,12.761   c-4.17,2.882-9.87,1.861-12.761-2.273C40.627,285.575,36.081,271.088,36.081,256c0-19.293,7.436-37.512,20.948-51.302   C58.82,202.873,61.2,201.952,63.571,201.952z"/>
</g>
<path d="M480.671,179.366c-20.74-21.121-48.46-32.753-78.058-32.753h-9.161c-4.745,0-8.591,3.846-8.591,8.591  c0,4.744,3.845,8.591,8.591,8.591h9.161c24.948,0,48.316,9.806,65.797,27.609c17.476,17.8,26.849,41.354,26.391,66.327  c-0.911,49.889-43.766,90.475-95.531,90.475H256.001c-4.744,0-8.591,3.846-8.591,8.591s3.846,8.591,8.591,8.591h92.206v37.226  c0,24.948-9.806,48.316-27.609,65.797c-17.799,17.476-41.369,26.837-66.327,26.393c-49.888-0.912-90.475-43.767-90.475-95.532  v-69.964c0-35.684,29.032-64.716,64.716-64.716h54.98c45.158,0,81.897-36.739,81.897-81.897v-73.306  c0-29.596-11.632-57.318-32.753-78.057c-21.117-20.733-49.06-31.849-78.678-31.312c-59.189,1.084-107.342,51.646-107.342,112.712  v33.882h-37.226c-29.596,0-57.318,11.632-78.057,32.753c-20.733,21.117-31.854,49.058-31.312,78.678  c1.084,59.189,51.646,107.342,112.712,107.342h5.819c4.744,0,8.591-3.846,8.591-8.591s-3.846-8.591-8.591-8.591h-5.819  c-51.765,0-94.62-40.587-95.533-90.475c-0.456-24.972,8.917-48.528,26.393-66.327c17.482-17.803,40.85-27.609,65.797-27.609h146.613  c4.745,0,8.591-3.846,8.591-8.591c0-4.744-3.845-8.591-8.591-8.591h-92.206v-33.882c0-51.765,40.587-94.62,90.475-95.533  c24.979-0.448,48.529,8.917,66.327,26.393c17.804,17.482,27.609,40.849,27.609,65.797v73.306c0,35.684-29.032,64.716-64.716,64.716  h-54.98c-45.158,0-81.897,36.739-81.897,81.897v69.964c0,61.067,48.153,111.629,107.341,112.711  c0.691,0.013,1.377,0.018,2.065,0.018c28.851,0,55.99-11.081,76.614-31.33c21.121-20.739,32.753-48.459,32.753-78.057v-37.226  h33.884c61.065,0,111.627-48.153,112.71-107.341C512.523,228.426,501.403,200.483,480.671,179.366z"/>
<path d="M210.184,90.488c4.744,0,8.591-3.846,8.591-8.591s-3.846-8.591-8.591-8.591c-14.842,0-26.917,12.075-26.917,26.917  s12.075,26.917,26.917,26.917s26.917-12.075,26.917-26.917c0-4.744-3.846-8.591-8.591-8.591c-4.744,0-8.591,3.846-8.591,8.591  c0,5.369-4.367,9.736-9.736,9.736c-5.369,0-9.736-4.367-9.736-9.736C200.448,94.855,204.816,90.488,210.184,90.488z"/>
<path d="M301.817,402.041c4.745,0,8.591-3.846,8.591-8.591c0-4.744-3.845-8.591-8.591-8.591c-14.842,0-26.917,12.075-26.917,26.917  s12.075,26.917,26.917,26.917s26.917-12.075,26.917-26.917c0-4.744-3.845-8.591-8.591-8.591s-8.591,3.846-8.591,8.591  c0,5.369-4.367,9.736-9.736,9.736s-9.736-4.367-9.736-9.736C292.081,406.408,296.45,402.041,301.817,402.041z"/>
<g>
</g>
<g>
</g>
<g>
</g>
<g>
</g>
<g>
</g>
<g>
</g>
<g>
</g>
<g>
</g>
<g>
</g>
<g>
</g>
<g>
</g>
<g>
</g>
<g>
</g>
<g>
</g>
<g>
</g>
</svg>
